<svg width="39" height="39" viewBox="0 0 39 39" fill="none" xmlns="http://www.w3.org/2000/svg">
<path fill-rule="evenodd" clip-rule="evenodd" d="M36.0575 9.58333L38.4725 25.5683C39.45 32.5642 34.6392 38.9275 28.1225 38.985H10.3742C3.97253 38.985 -0.895807 32.5642 0.139193 25.5683L2.55419 9.58333C3.12752 4.29788 7.47749 0.224868 12.7892 0H25.8225C31.1342 0.224868 35.4842 4.29788 36.0575 9.58333ZM28.18 36.0525C30.238 36.0228 32.1791 35.0908 33.4892 33.5033C35.2462 31.4225 36.009 28.6792 35.5784 25.99L33.2209 10.005C32.8842 6.10322 29.7324 3.04122 25.8225 2.8175H12.7892C8.87931 3.04122 5.7275 6.10322 5.39086 10.005L3.03336 25.99C2.6027 28.6792 3.36551 31.4225 5.12253 33.5033C6.43259 35.0908 8.3737 36.0228 10.4317 36.0525H28.18Z" fill="black"/>
<path d="M25.3434 9.96667C24.5494 9.96667 23.9059 10.6103 23.9059 11.4042C23.9059 13.9447 21.8464 16.0042 19.3059 16.0042C16.7653 16.0042 14.7059 13.9447 14.7059 11.4042C14.7059 10.6103 14.0623 9.96667 13.2684 9.96667C12.4744 9.96667 11.8309 10.6103 11.8309 11.4042C11.8309 14.0747 13.2556 16.5424 15.5684 17.8777C17.8811 19.213 20.7306 19.213 23.0434 17.8777C25.3561 16.5424 26.7809 14.0747 26.7809 11.4042C26.7705 10.6146 26.1329 9.97699 25.3434 9.96667Z" fill="black"/>
</svg>
