<svg width="39" height="35" viewBox="0 0 39 35" fill="none" xmlns="http://www.w3.org/2000/svg">
<path d="M19.3583 34.1167C18.4 34.1167 17.25 33.7333 16.4833 32.9667C4.025 22.0417 3.83333 21.85 3.83333 21.6583L3.64166 21.4667C1.34166 19.1667 0 15.9083 0 12.65V12.2667C0.191667 5.36667 5.75 0 12.65 0C14.7583 0 17.6333 1.15 19.3583 3.45C21.0833 1.15 24.15 0 26.2583 0C33.1583 0 38.525 5.36667 38.9083 12.2667V12.65C38.9083 16.1 37.5667 19.1667 35.2667 21.6583L35.075 21.85C34.8833 22.0417 33.35 23.3833 22.425 33.1583C21.4667 33.7333 20.5083 34.1167 19.3583 34.1167ZM6.70833 21.0833C7.475 21.85 11.3083 24.5333 18.4 30.6667C18.975 31.2417 19.7417 31.2417 20.3167 30.6667C27.6 24.15 31.8167 20.5083 32.775 19.7417L32.9667 19.55C34.8833 17.6333 35.8417 15.1417 35.8417 12.65V12.2667C35.65 6.9 31.4333 2.875 26.0667 2.875C24.725 2.875 22.0417 3.83333 21.0833 5.94167C20.7 6.70833 19.9333 7.09167 19.1667 7.09167C18.4 7.09167 17.6333 6.70833 17.25 5.94167C16.2917 4.025 13.8 2.875 12.2667 2.875C7.09166 2.875 2.68333 7.09167 2.49167 12.2667V12.8417C2.49167 15.3333 3.64167 17.825 5.36667 19.55L6.70833 21.0833Z" fill="black"/>
</svg>
