<svg width="46" height="46" viewBox="0 0 46 46" fill="none" xmlns="http://www.w3.org/2000/svg">
<path fill-rule="evenodd" clip-rule="evenodd" d="M37.5283 32.0275L37.9883 34.2125C38.4242 36.1015 37.9938 38.0866 36.8147 39.6254C35.6355 41.1643 33.8307 42.0962 31.8933 42.1666H14.1067C12.1692 42.0962 10.3645 41.1643 9.18532 39.6254C8.00615 38.0866 7.57574 36.1015 8.01166 34.2125L8.47166 32.0275C9.00073 29.0696 11.5434 26.896 14.5475 26.8333H31.4525C34.4566 26.896 36.9993 29.0696 37.5283 32.0275ZM31.8933 39.2725C32.8666 39.2612 33.7825 38.8103 34.385 38.0458V38.065C35.1242 37.1377 35.4123 35.9294 35.1708 34.7683L34.7108 32.5833C34.4556 30.9641 33.0906 29.7516 31.4525 29.6891H14.5475C12.9094 29.7516 11.5444 30.9641 11.2892 32.5833L10.8292 34.7683C10.5937 35.9233 10.8814 37.1232 11.615 38.0458C12.2175 38.8103 13.1334 39.2612 14.1067 39.2725H31.8933Z" fill="black"/>
<path fill-rule="evenodd" clip-rule="evenodd" d="M23.9583 22.9999H22.0416C17.8074 22.9999 14.375 19.5675 14.375 15.3333V10.2733C14.3699 8.56372 15.0467 6.92271 16.2556 5.71387C17.4644 4.50503 19.1054 3.82817 20.815 3.83328H25.185C26.8945 3.82817 28.5355 4.50503 29.7444 5.71387C30.9532 6.92271 31.6301 8.56372 31.625 10.2733V15.3333C31.625 19.5675 28.1925 22.9999 23.9583 22.9999ZM20.815 6.70828C18.8461 6.70828 17.25 8.30439 17.25 10.2733V15.3333C17.25 17.9796 19.3953 20.1249 22.0416 20.1249H23.9583C26.6047 20.1249 28.75 17.9796 28.75 15.3333V10.2733C28.75 9.32778 28.3744 8.42101 27.7058 7.75245C27.0372 7.08388 26.1305 6.70828 25.185 6.70828H20.815Z" fill="black"/>
</svg>
